<?xml version="1.0" standalone="no"?>
<!DOCTYPE svg PUBLIC "-//W3C//DTD SVG 1.1//EN" "http://www.w3.org/Graphics/SVG/1.1/DTD/svg11.dtd" >
<svg xmlns="http://www.w3.org/2000/svg">
<metadata></metadata>
<defs>
<font id="bernino_sans_offc_ltregular" horiz-adv-x="1115" >
<font-face units-per-em="2048" ascent="1643" descent="-405" />
<missing-glyph horiz-adv-x="557" />
<glyph horiz-adv-x="2048" />
<glyph horiz-adv-x="2048" />
<glyph unicode="&#xd;" horiz-adv-x="682" />
<glyph unicode=" "  horiz-adv-x="557" />
<glyph unicode="&#x09;" horiz-adv-x="557" />
<glyph unicode="&#xa0;" horiz-adv-x="557" />
<glyph unicode="!" horiz-adv-x="565" d="M229 0v138h138v-138h-138zM237 1437h122l-15 -1074h-92z" />
<glyph unicode="&#x22;" horiz-adv-x="718" d="M191 1024v466h118l-53 -466h-65zM424 1024v466h119l-54 -466h-65z" />
<glyph unicode="#" horiz-adv-x="1360" d="M124 306l8 84h241l53 535h-243l8 84h243l30 305h101l-30 -305h359l31 305h101l-31 -305h241l-8 -84h-240l-54 -535h241l-8 -84h-240l-31 -306h-103l30 306h-357l-30 -306h-102l31 306h-241zM474 390h357l54 535h-358z" />
<glyph unicode="$" horiz-adv-x="1050" d="M122 982q0 141 111 217.5t300 80.5l10 157h103l-16 -161q138 -10 264 -53v-100h-15q-115 50 -258 61l-40 -483q65 -25 107 -44t93.5 -51.5t82 -67t51.5 -85t21 -109.5q0 -147 -110.5 -224.5t-296.5 -85.5l-9 -156h-104l16 158q-155 8 -298 56v103h15q138 -57 290 -67 l42 508q-50 19 -76.5 31.5t-70.5 33.5t-68.5 38.5t-56 44t-48 55t-28 65t-11.5 78.5zM233 990q0 -48 19 -87t59.5 -70t80.5 -52t101 -45l32 452q-145 -4 -218.5 -55t-73.5 -143zM535 126q290 7 290 208q0 50 -19 92t-57 73.5t-79 54.5t-101 48z" />
<glyph unicode="%" horiz-adv-x="1597" d="M126 1011q0 145 88 234.5t222 89.5t221.5 -89.5t87.5 -232.5q0 -145 -88 -235t-221 -90q-134 0 -222 90t-88 233zM220 0v11l548 675l481 628h128v-9l-548 -676l-481 -629h-128zM229 1013q0 -107 58.5 -172t149.5 -65q90 0 147.5 65t57.5 172q0 105 -57.5 170t-147.5 65 q-92 0 -150 -65t-58 -170zM852 302q0 145 88 235t223 90q134 0 221 -90t87 -233q0 -145 -88 -235t-221 -90q-136 0 -223 90t-87 233zM955 304q0 -107 58.5 -172t149.5 -65q90 0 147.5 66t57.5 171t-57.5 170t-147.5 65q-92 0 -150 -65t-58 -170z" />
<glyph unicode="&#x26;" horiz-adv-x="1386" d="M107 329q0 65 23 120t67 105t92.5 88t123.5 88q-107 111 -157 202.5t-50 192.5q0 149 95.5 242t252.5 93q151 0 245.5 -84.5t94.5 -217.5q0 -53 -17 -101t-46 -90t-75.5 -85t-87.5 -74.5t-103 -73.5l406 -371q88 180 114 424h103q-38 -302 -145 -485l313 -287v-15h-149 l-233 214q-168 -237 -441 -237q-183 0 -304.5 99.5t-121.5 252.5zM229 332q0 -118 91.5 -190.5t225.5 -72.5q218 0 363 206l-431 397q-122 -84 -185.5 -163t-63.5 -177zM321 1137q0 -84 46 -167.5t141 -182.5q65 46 104 79.5t82 80t64 96.5t21 105q0 99 -64.5 161.5 t-164.5 62.5q-99 0 -164 -64t-65 -171z" />
<glyph unicode="'" horiz-adv-x="489" d="M191 1024v466h122l-46 -466h-76z" />
<glyph unicode="(" horiz-adv-x="653" d="M138 592q0 149 26.5 290.5t71.5 254t95 200.5t105 153h95q-52 -65 -97.5 -151t-86.5 -197.5t-64 -254t-23 -295.5t23 -295t64 -254t87 -198t97 -151h-95q-55 65 -105 153t-95 200.5t-71.5 254t-26.5 290.5z" />
<glyph unicode=")" horiz-adv-x="653" d="M122 -306q52 65 98 151t87 198t64 254t23 295t-23 295.5t-64 254t-87 197.5t-98 151h96q55 -65 105 -153t94.5 -200.5t71.5 -254t27 -290.5t-27 -290.5t-71.5 -254t-94.5 -200.5t-105 -153h-96z" />
<glyph unicode="*" horiz-adv-x="1039" d="M153 1257l27 88l298 -99l-4 313h91l-3 -313l298 99l26 -88l-298 -92l188 -252l-73 -53l-183 256l-184 -256l-72 53l187 252z" />
<glyph unicode="+" horiz-adv-x="1299" d="M176 489v99h424v436h99v-436h424v-99h-424v-436h-99v436h-424z" />
<glyph unicode="," horiz-adv-x="435" d="M76 -298l92 466h122l-137 -466h-77z" />
<glyph unicode="-" horiz-adv-x="840" d="M122 543v99h596v-99h-596z" />
<glyph unicode="." horiz-adv-x="435" d="M153 0v138h137v-138h-137z" />
<glyph unicode="/" horiz-adv-x="783" d="M46 -53l588 1543h103l-588 -1543h-103z" />
<glyph unicode="0" horiz-adv-x="1192" d="M157 651q0 99 7.5 180.5t24.5 162t50.5 139.5t81.5 107t118.5 71.5t160.5 23.5q76 0 139 -18t107 -50.5t78.5 -82t55.5 -105t33.5 -126t17 -139.5t4.5 -149q0 -84 -5.5 -155t-18 -143.5t-34.5 -129t-56.5 -106t-79 -83t-107 -51.5t-140.5 -18q-90 0 -160.5 24 t-117.5 71.5t-78.5 107t-48.5 137.5t-24.5 156.5t-7.5 175.5zM279 657.5q0 -307.5 76.5 -446t240.5 -138.5q165 0 241 139q78 139 78 445t-77.5 445.5t-241.5 139.5t-240.5 -138.5t-76.5 -446z" />
<glyph unicode="1" horiz-adv-x="704" d="M80 1108v94l333 112h93v-1314h-114v1213l-298 -105h-14z" />
<glyph unicode="2" horiz-adv-x="1020" d="M117 0v82q59 65 143 153t134.5 142.5t112.5 125t100.5 122t71 111t47.5 116.5t15 117q0 128 -74.5 198.5t-223.5 70.5q-134 0 -284 -55h-16v97q159 48 306 48q201 0 308 -93t107 -257q0 -75 -23 -146.5t-62.5 -137t-102.5 -142t-119 -136t-145 -154t-152 -166.5h630v-96 h-773z" />
<glyph unicode="3" horiz-adv-x="985" d="M122 25v92h14q120 -40 238 -41q157 0 249 74.5t92 206.5q0 157 -130 233q-96 55 -260 56h-94v91h98q149 0 238 52q118 69 119 212q0 113 -73.5 175t-215.5 62q-120 0 -246 -42h-15v94q136 38 269 38q199 0 301 -88t102 -227q0 -115 -69.5 -200t-197.5 -110 q126 -19 211 -109t85 -231q0 -168 -122.5 -272t-340.5 -104q-134 0 -252 38z" />
<glyph unicode="4" d="M80 306v70l573 938h144v-919h223v-89h-223v-306h-113v306h-604zM193 395h491v791z" />
<glyph unicode="5" horiz-adv-x="989" d="M143 29v97h14q124 -50 256 -50q162 0 248 87t86 223q0 139 -92.5 227t-274.5 88q-78 0 -195 -15h-13l34 628h591v-93h-495l-29 -438q69 8 128 8q118 0 210 -32.5t147.5 -88t82 -126t26.5 -152.5q0 -183 -126 -294t-334 -111q-138 0 -264 42z" />
<glyph unicode="6" horiz-adv-x="1109" d="M157 573q0 409 118.5 582t402.5 173q124 0 231 -27v-99h-13q-109 36 -229 36q-115 0 -191.5 -38t-121.5 -116.5t-64 -193t-19 -284.5q29 92 111 146t208 54q183 0 290.5 -111.5t107.5 -287.5q0 -187 -116.5 -307.5t-306.5 -120.5q-111 0 -191 40t-129 109 q-46 63 -67 164.5t-21 280.5zM279 399q0 -143 76.5 -236.5t213.5 -93.5q132 0 214 88t82 242q0 145 -75 231t-209 86q-132 0 -217 -82t-85 -235z" />
<glyph unicode="7" horiz-adv-x="905" d="M67 1221v93h758v-61l-458 -1253h-122l456 1221h-634z" />
<glyph unicode="8" horiz-adv-x="1142" d="M136 311q0 132 84 228.5t216 144.5q-118 50 -185.5 133.5t-67.5 200.5q0 103 54.5 177t140.5 107t193 33t192 -33t139.5 -105t54.5 -171q0 -115 -68.5 -202t-185.5 -138q147 -52 225.5 -141.5t78.5 -213.5q0 -111 -62 -192.5t-163.5 -120.5t-223.5 -39q-118 0 -213 37 t-152 113.5t-57 181.5zM258 323q0 -118 84 -186t229 -68t229.5 67.5t84.5 182.5t-91 194t-272 137q-128 -57 -196 -139.5t-68 -187.5zM306 1022q0 -107 77 -179.5t230 -124.5q97 46 160.5 120.5t63.5 179.5t-69 166.5t-197 61.5q-126 0 -195.5 -60.5t-69.5 -163.5z" />
<glyph unicode="9" horiz-adv-x="1109" d="M122 907q0 183 115 305.5t307 122.5q111 0 192.5 -40t128.5 -109q46 -63 67 -164t21 -281q0 -409 -119 -581.5t-402 -172.5q-128 0 -231 26v100h13q105 -36 229 -37q113 0 190.5 37.5t122 116.5t64 194t19.5 285q-29 -92 -111 -146.5t-208 -54.5q-183 0 -290.5 111.5 t-107.5 287.5zM245 915q0 -145 75 -231t209 -86q130 0 216 82t86 233q0 141 -76.5 237t-215.5 96q-130 0 -212 -88t-82 -243z" />
<glyph unicode=":" horiz-adv-x="443" d="M153 0v138h137v-138h-137zM153 871v138h137v-138h-137z" />
<glyph unicode=";" horiz-adv-x="443" d="M76 -298l92 466h122l-137 -466h-77zM153 902v137h137v-137h-137z" />
<glyph unicode="&#x3c;" horiz-adv-x="1299" d="M206 485v107l810 390v-107l-710 -332l710 -340v-107z" />
<glyph unicode="=" horiz-adv-x="1299" d="M214 325v91h871v-91h-871zM214 661v92h871v-92h-871z" />
<glyph unicode="&#x3e;" horiz-adv-x="1299" d="M283 96v107l710 332l-710 340v107l810 -390v-107z" />
<glyph unicode="?" horiz-adv-x="962" d="M122 1299v99q138 53 314 54q222 0 328.5 -95.5t106.5 -252.5q0 -53 -13.5 -101t-32.5 -82.5t-49.5 -69.5t-56.5 -57t-61 -52.5t-54 -49.5q-31 -31 -52 -62.5t-31.5 -57.5t-15 -56.5t-6.5 -65t-2 -87.5h-115q0 53 2 90.5t8.5 73t22 73.5t46 81t74.5 83q11 10 43.5 37.5 t50 45t46 49t44 59t27 66.5t11.5 81q0 122 -88 190t-245 68q-160 0 -286 -61h-16zM371 0v138h137v-138h-137z" />
<glyph unicode="@" horiz-adv-x="1975" d="M229 565.5q0 225.5 102.5 402t281 273t400.5 96.5q164 0 303.5 -55t233 -152.5t145 -229.5t51.5 -281q0 -210 -95.5 -336t-244.5 -126q-86 0 -133.5 44.5t-53.5 130.5q-19 -73 -84 -124t-174 -51q-153 0 -242 107t-89 298q0 193 93 299t253 106q90 0 143.5 -34.5 t80.5 -103.5l38 115h65v-505v-54t4 -46t9.5 -42t17 -29.5t30.5 -21t46 -5.5q99 0 164 98t65 270q0 183 -74.5 326.5t-218.5 227t-337 83.5q-195 0 -348 -84.5t-239 -237t-86 -351.5q0 -147 50 -270t144.5 -213t235 -139.5t315.5 -49.5q260 0 520 95h15v-95 q-267 -92 -539 -92q-258 0 -450.5 95.5t-295 265.5t-102.5 395.5zM737.5 561.5q-0.5 -313.5 233.5 -313.5q233 1 233 314t-233 313t-233.5 -313.5z" />
<glyph unicode="A" horiz-adv-x="1199" d="M31 0l527 1437h107l504 -1437h-122l-151 443h-600l-158 -443h-107zM329 535h535l-260 764z" />
<glyph unicode="B" horiz-adv-x="1207" d="M199 0v1437h351q73 0 119 -3t93.5 -14.5t93.5 -36.5q160 -88 160 -298q0 -138 -66.5 -220t-170.5 -101q61 -10 115 -33.5t101.5 -65.5t76 -108t28.5 -150q0 -103 -42 -186t-118 -137q-122 -84 -352 -84h-389zM313 92h275q42 0 73 2t65 7.5t70.5 20t67.5 38.5 q115 88 114 245q0 170 -153 252q-46 25 -92.5 36.5t-87.5 14.5t-95 3h-237v-619zM313 802h245q50 0 85 3t64.5 9.5t64.5 26.5q122 69 122 235q0 168 -115 231q-34 19 -72 26.5t-70.5 9.5t-86.5 2h-237v-543z" />
<glyph unicode="C" horiz-adv-x="1192" d="M115 718.5q0 120.5 22.5 226.5t72.5 199.5t124.5 161.5t184.5 107t245 39q168 0 313 -54v-99h-15q-153 61 -305 61q-130 0 -231.5 -49.5t-163.5 -136.5t-93.5 -200.5t-31.5 -247.5q0 -107 19 -202.5t61 -177.5t103 -141.5t149 -94t193 -34.5q147 0 300 62h15v-100 q-147 -53 -313 -53q-136 0 -245.5 39t-184 107t-124.5 161.5t-72.5 199.5t-22.5 226.5z" />
<glyph unicode="D" horiz-adv-x="1408" d="M199 0v1437h328q71 0 122.5 -2t107 -9t119.5 -25t117 -48q298 -164 298 -635q0 -466 -313 -634q-53 -31 -113.5 -49t-115 -24.5t-103 -8.5t-119.5 -2h-328zM313 92h222q80 0 145 4.5t124.5 21t120.5 50.5q245 141 245 548q0 411 -245 553q-61 34 -129 51t-124.5 21 t-136.5 4h-222v-1253z" />
<glyph unicode="E" horiz-adv-x="1085" d="M199 0v1437h749v-92h-635v-543h543v-91h-543v-619h665v-92h-779z" />
<glyph unicode="F" horiz-adv-x="1001" d="M199 0v1437h726v-92h-612v-611h543v-92h-543v-642h-114z" />
<glyph unicode="G" horiz-adv-x="1367" d="M115 709q0 185 53.5 328.5t150 233t225 135.5t283.5 46q178 0 342 -54v-107h-15q-149 69 -331 69q-99 0 -186 -23t-161.5 -71.5t-127 -121t-82 -179.5t-29.5 -239q0 -160 44 -286.5t122 -204.5t181.5 -118.5t223.5 -40.5q149 0 285 54v512h-306v92h420v-673 q-180 -76 -395 -76q-155 0 -281 44t-219.5 131.5t-145 227t-51.5 321.5z" />
<glyph unicode="H" horiz-adv-x="1425" d="M201 0v1437h114v-635h795v635h115v-1437h-115v711h-795v-711h-114z" />
<glyph unicode="I" horiz-adv-x="512" d="M199 0v1437h114v-1437h-114z" />
<glyph unicode="J" horiz-adv-x="768" d="M23 15v96h15q84 -31 165 -31q141 0 206 96q21 32 30.5 65.5t12.5 72t3 91.5v1032h114v-1028q0 -61 -2.5 -105t-17 -94t-45.5 -92q-46 -65 -126 -97t-175 -32h-7q-92 0 -173 26z" />
<glyph unicode="K" horiz-adv-x="1207" d="M199 0v1437h114v-726l680 726h130l-580 -612l607 -825h-141l-545 747l-151 -151v-596h-114z" />
<glyph unicode="L" horiz-adv-x="970" d="M199 0v1437h114v-1345h627v-92h-741z" />
<glyph unicode="M" horiz-adv-x="1807" d="M199 0v1437h153l554 -1254l550 1254h153v-1437h-115v1291l-543 -1230h-107l-538 1230v-1291h-107z" />
<glyph unicode="N" horiz-adv-x="1451" d="M199 0v1437h122l825 -1254v1254h107v-1437h-114l-833 1261v-1261h-107z" />
<glyph unicode="O" horiz-adv-x="1467" d="M115 711q0 357 162 553t462 196q294 0 454 -189.5t160 -544.5q0 -357 -162.5 -553t-462.5 -196q-294 0 -453.5 189t-159.5 545zM237 718q0 -321 128 -485q130 -164 369 -164t367.5 164t128.5 485t-129 485.5t-367 164.5q-239 0 -368 -164.5t-129 -485.5z" />
<glyph unicode="P" horiz-adv-x="1132" d="M199 0v1437h290q88 0 148 -4t128 -21t121 -52q82 -53 121.5 -144t39.5 -200q0 -122 -46 -213.5t-130 -145.5q-75 -48 -158.5 -62t-223.5 -14h-176v-581h-114zM313 672h214q69 0 111 4t88 16.5t84 41.5q59 42 87 116.5t28 158.5t-28 158.5t-87 116.5q-40 29 -86 41 t-91.5 16t-105.5 4h-214v-673z" />
<glyph unicode="Q" horiz-adv-x="1467" d="M115 711q0 357 162 553t462 196q294 0 454 -189.5t160 -544.5q0 -258 -86 -433t-249 -255l205 -275h-146l-164 237q-86 -23 -185 -23q-294 0 -453.5 189t-159.5 545zM237 718q0 -321 128 -485q130 -164 369 -164t367.5 164t128.5 485t-129 485.5t-367 164.5 q-239 0 -368 -164.5t-129 -485.5z" />
<glyph unicode="R" horiz-adv-x="1199" d="M199 0v1437h403q44 0 76.5 -2t71.5 -9t78 -21t74 -37q153 -101 153 -319q0 -90 -24 -160.5t-67 -117.5t-97.5 -75.5t-121.5 -42.5l394 -653h-138l-382 642h-306v-642h-114zM313 734h275q160 0 237 53q48 32 77.5 98t29.5 158q0 174 -107 248q-76 53 -227 54h-285v-611z " />
<glyph unicode="S" horiz-adv-x="1039" d="M122 53v107h16q170 -84 334 -84q157 0 247.5 77.5t90.5 207.5q0 63 -23 114.5t-62 87t-89.5 66t-107 57.5t-113 53.5t-107 60t-89.5 75.5t-62 99.5t-23 127.5q0 160 110.5 255t309.5 95q154 -1 313 -54v-99h-15q-155 61 -296 61q-147 0 -227.5 -66.5t-80.5 -177.5 q0 -57 23 -105t62.5 -82.5t90 -64t107 -56.5t112.5 -54.5t106.5 -64t90 -79.5t62.5 -105t23 -138q0 -80 -26 -145t-71 -109t-105 -73t-128 -42t-142 -13q-180 0 -331 68z" />
<glyph unicode="T" horiz-adv-x="1092" d="M46 1345v92h1001v-92h-443v-1345h-115v1345h-443z" />
<glyph unicode="U" horiz-adv-x="1417" d="M201 550v887h114v-910q0 -109 18.5 -188t62 -142t123 -95.5t194.5 -32.5t194 32.5t123 95.5t62 142t18 188v910h107v-887q0 -48 -2 -89t-6.5 -82t-16 -84t-34.5 -89.5t-56 -83.5q-67 -73 -171 -109t-226 -36t-224.5 36.5t-165.5 108.5q-32 36 -55 83t-34.5 90t-16.5 84 t-6.5 82t-1.5 89z" />
<glyph unicode="V" horiz-adv-x="1237" d="M46 1437h130l443 -1284l462 1284h111l-535 -1437h-99z" />
<glyph unicode="W" horiz-adv-x="1872" d="M61 1437h122l337 -1269l366 1223h115l344 -1223l359 1269h107l-420 -1437h-107l-352 1230l-367 -1230h-114z" />
<glyph unicode="X" horiz-adv-x="1283" d="M61 0l512 741l-481 696h137l421 -627l420 627h122l-481 -696l512 -741h-138l-451 672l-451 -672h-122z" />
<glyph unicode="Y" horiz-adv-x="1157" d="M31 1437h133l424 -757l428 757h111l-493 -860v-577h-114v577z" />
<glyph unicode="Z" horiz-adv-x="1192" d="M107 0v76l818 1269h-787v92h924v-77l-817 -1268h832v-92h-970z" />
<glyph unicode="[" horiz-adv-x="703" d="M199 -306v1796h389v-92h-282v-1612h282v-92h-389z" />
<glyph unicode="\" horiz-adv-x="783" d="M46 1490h103l588 -1543h-103z" />
<glyph unicode="]" horiz-adv-x="710" d="M122 -214h283v1612h-283v92h390v-1796h-390v92z" />
<glyph unicode="^" horiz-adv-x="947" d="M122 795l298 642h107l298 -642h-118l-237 519l-237 -519h-111z" />
<glyph unicode="_" horiz-adv-x="764" d="M-8 -84h780v-92h-780v92z" />
<glyph unicode="`" horiz-adv-x="1146" d="M283 1490h141l203 -283h-84z" />
<glyph unicode="a" horiz-adv-x="1008" d="M99 264q0 189 176 263q55 23 119.5 33.5t138 13.5t193.5 3q0 76 -2 119t-9.5 81.5t-26.5 70.5q-57 99 -229 100q-136 0 -260 -54h-16v99q134 46 287 46q225 0 309 -114q29 -40 42.5 -89t16.5 -102.5t3 -137.5v-596h-84l-31 183q-19 -86 -93.5 -146t-206.5 -60 q-147 0 -237 76.5t-90 210.5zM222 266q0 -92 59 -144.5t158 -52.5q78 0 141.5 34.5t99.5 102.5q46 90 46 260v23q-130 0 -195 -3t-116.5 -13.5t-93.5 -33.5q-99 -56 -99 -173z" />
<glyph unicode="b" horiz-adv-x="1161" d="M183 0v1490h115v-657q25 92 108 153t215 61q195 0 310.5 -140.5t115.5 -390.5q0 -254 -117.5 -396.5t-323.5 -142.5q-122 0 -199.5 50.5t-108.5 140.5l-53 -168h-62zM290 512q0 -203 78.5 -323t239.5 -120q160 0 238 120q78 119 79 320q0 205 -79 326q-78 120 -238 120 t-239 -120t-79 -323z" />
<glyph unicode="c" horiz-adv-x="913" d="M115 512q0 246 124 386.5t346 140.5q118 0 229 -38v-99h-15q-109 46 -214 46q-164 0 -256 -114t-92 -314q0 -203 93.5 -323.5t256.5 -120.5q105 0 212 46h15v-99q-107 -38 -229 -38q-222 0 -346 140.5t-124 386.5z" />
<glyph unicode="d" horiz-adv-x="1161" d="M115 510q0 252 116.5 394.5t318.5 142.5q239 0 314 -199v642h114v-1490h-84l-30 191q-23 -96 -109 -155t-214 -59q-195 0 -310.5 140.5t-115.5 392.5zM237 512q0 -203 78.5 -323t238.5 -120t238.5 120t78.5 323t-78 323t-239 120q-160 0 -238.5 -120t-78.5 -323z" />
<glyph unicode="e" horiz-adv-x="1024" d="M115 512q0 252 112.5 393.5t307.5 141.5q220 0 313 -176q29 -53 42.5 -119t16.5 -122.5t2 -132.5h-672q0 -206 88 -313.5t260 -107.5q126 0 256 54h15v-99q-126 -46 -273 -46q-233 0 -346 126q-122 134 -122 401zM237 585h550q0 181 -65 275.5t-193 94.5 q-134 0 -207.5 -97t-84.5 -273z" />
<glyph unicode="f" horiz-adv-x="764" d="M61 917v92h206v91q0 76 2 117.5t10 78.5t27 72q69 122 254 122q67 0 135 -15v-99h-15q-66 22 -125 22h-5q-105 0 -145 -84q-15 -31 -19 -69t-4 -104v-132h313v-92h-313v-917h-115v917h-206z" />
<glyph unicode="g" horiz-adv-x="1161" d="M115 523.5q0 248.5 117.5 386t321.5 137.5q124 0 201.5 -49.5t108.5 -133.5l53 160h61v-925q0 -75 -2 -124.5t-9.5 -88.5t-23 -73.5t-41.5 -68.5q-122 -149 -400 -149q-180 0 -319 57v103h16q155 -68 312 -68h5q218 0 302 133q31 52 38.5 109.5t7.5 192.5v84 q-29 -97 -112 -151.5t-206 -54.5q-197 0 -314 137.5t-117 386zM237 523.5q0 -95.5 18 -174t55.5 -137t98.5 -90.5q61 -30 140 -30h5q82 0 144 31.5t99.5 89.5t55.5 136.5t18 174t-18 174t-55.5 136.5t-99.5 89.5t-144 31.5t-144 -31.5t-99.5 -89.5t-55.5 -136.5t-18 -174z " />
<glyph unicode="h" d="M183 0v1490h115v-642q38 199 296 199q204 0 292 -130q29 -44 41.5 -88t16.5 -97.5t4 -127.5v-604h-115v604q0 50 -2 92.5t-11.5 80t-32.5 71.5q-69 99 -218 100q-271 0 -271 -306v-642h-115z" />
<glyph unicode="i" horiz-adv-x="481" d="M176 1269v145h130v-145h-130zM183 0v1024h115v-1024h-115z" />
<glyph unicode="j" horiz-adv-x="481" d="M-84 -290h15q38 -8 75 -8q101 0 147 76q15 25 21.5 54t7.5 58.5t1 78.5v1055h115v-1074q0 -44 -3 -80t-10.5 -65.5t-24.5 -64.5q-69 -130 -256 -130q-46 0 -88 8v92zM176 1269v145h130v-145h-130z" />
<glyph unicode="k" horiz-adv-x="1016" d="M183 0v1490h115v-974l481 508h138l-416 -428l439 -596h-138l-380 518l-124 -124v-394h-115z" />
<glyph unicode="l" horiz-adv-x="481" d="M183 0v1490h115v-1490h-115z" />
<glyph unicode="m" horiz-adv-x="1719" d="M183 0v1024h84l31 -176q36 199 289 199q130 0 204 -53.5t111 -160.5q59 214 311 214q191 0 277 -130q38 -57 49.5 -124t11.5 -189v-604h-114v604q0 99 -9 150.5t-37 93.5q-65 99 -205 100q-262 0 -261 -306v-642h-115v604q0 99 -8.5 150.5t-37.5 93.5q-65 99 -204 100 q-262 0 -262 -306v-642h-115z" />
<glyph unicode="n" d="M183 0v1024h84l31 -176q38 199 296 199q204 0 292 -130q38 -59 50 -127t12 -186v-604h-115v623q0 50 -3 91t-13.5 72.5t-29.5 61.5q-69 99 -220 100q-269 0 -269 -306v-642h-115z" />
<glyph unicode="o" horiz-adv-x="1123" d="M115 508q0 252 118.5 395.5t331.5 143.5q210 0 327 -139.5t117 -391.5t-118.5 -395.5t-332.5 -143.5q-210 0 -326.5 139.5t-116.5 391.5zM237 512.5q0 -221.5 82 -332.5t243 -111q160 0 242 110.5t82 332.5t-82 332.5t-242 110.5t-242.5 -110.5t-82.5 -332z" />
<glyph unicode="p" horiz-adv-x="1161" d="M183 -390v1414h84l31 -191q23 96 109 155t214 59q195 0 310.5 -140.5t115.5 -392.5t-116.5 -394.5t-319.5 -142.5q-239 0 -313 199v-566h-115zM290 512q0 -134 32.5 -231.5t104.5 -154.5t181 -57q84 0 145 33.5t98 93.5t55.5 139.5t18.5 176.5t-18.5 176.5t-55.5 139.5 t-98 93.5t-145 33.5q-109 0 -181 -57t-104.5 -154.5t-32.5 -231.5z" />
<glyph unicode="q" horiz-adv-x="1161" d="M115 510q0 252 118.5 394.5t322.5 142.5q122 0 199.5 -50.5t108.5 -140.5l53 168h61v-1414h-114v581q-25 -92 -108.5 -153t-214.5 -61q-195 0 -310.5 140.5t-115.5 392.5zM237 512q0 -97 18 -176.5t55.5 -139.5t98.5 -93.5t145 -33.5q109 0 180.5 57t104 154.5 t32.5 231.5t-32.5 231.5t-104 154.5t-180.5 57q-84 0 -145 -33.5t-98.5 -93.5t-55.5 -139.5t-18 -176.5z" />
<glyph unicode="r" horiz-adv-x="695" d="M183 0v1024h84l23 -191q15 59 45 98.5t73 61t90.5 30.5t105.5 9h38v-107q-37 7 -79 7h-11q-50 0 -91 -11.5t-67.5 -30.5t-44.5 -44.5t-28 -50.5t-15.5 -59.5t-6.5 -56.5t-1 -52v-627h-115z" />
<glyph unicode="s" horiz-adv-x="848" d="M130 38v100h15q134 -61 252 -62q103 0 162.5 48t59.5 132q0 55 -25 93.5t-69 67t-95.5 52.5t-103 50.5t-92.5 57.5t-68.5 80.5t-27.5 114.5q0 122 87.5 194.5t244.5 72.5q114 0 225 -38v-99h-15q-117 46 -221 46q-96 0 -151.5 -42t-55.5 -115q0 -50 27 -88t69 -63 t93.5 -49t103 -51.5t94.5 -63t69 -88t26 -121.5q0 -73 -29 -128t-79.5 -88.5t-111.5 -49.5t-134 -16q-139 0 -250 53z" />
<glyph unicode="t" horiz-adv-x="787" d="M61 917v92h199v305l114 39v-344h314v-92h-314v-573q0 -61 1 -88t6 -57.5t16 -53.5q34 -69 132 -69q71 0 143 31h16v-99q-73 -23 -161 -23q-164 0 -229 99q-23 34 -30.5 81t-7.5 164v588h-199z" />
<glyph unicode="u" d="M183 420v604h115v-604q0 -99 8.5 -149.5t37.5 -94.5q67 -99 212 -100q262 0 262 306v642h114v-1024h-84l-30 176q-17 -92 -88 -145.5t-201 -53.5q-197 0 -284 130q-32 48 -47 113t-15 200z" />
<glyph unicode="v" horiz-adv-x="1100" d="M99 1024h138l321 -879l328 879h115l-397 -1024h-107z" />
<glyph unicode="w" horiz-adv-x="1658" d="M111 1024h130l260 -879l282 864h115l267 -864l275 879h107l-336 -1024h-114l-268 864l-283 -864h-114z" />
<glyph unicode="x" horiz-adv-x="1039" d="M84 0l367 531l-340 493h145l271 -416l272 416h129l-340 -493l367 -531h-145l-298 455l-298 -455h-130z" />
<glyph unicode="y" horiz-adv-x="1092" d="M99 1024h138l313 -856l329 856h114l-557 -1414h-115l168 421z" />
<glyph unicode="z" horiz-adv-x="939" d="M122 0v92l558 825h-550v92h680v-92l-550 -825h565v-92h-703z" />
<glyph unicode="{" horiz-adv-x="703" d="M76 546v92q92 0 132 24t40 106v428q0 36 2 57t8 54.5t21 62t42 51.5q27 25 59.5 39.5t72.5 20t64.5 7.5t70.5 2v-92q-38 0 -62.5 -1.5t-54.5 -7.5t-48 -17.5t-35 -30.5t-25 -49.5t-8 -72.5v-443q0 -27 -1 -42.5t-7.5 -42t-18 -42t-36.5 -32.5t-59 -25q34 -8 59 -25 t36.5 -32t18 -42t7.5 -42t1 -42v-443q0 -42 8 -73t25 -50t35 -30.5t48 -17t54.5 -7.5t62.5 -2v-92q-46 0 -70.5 2t-64.5 8t-72.5 20t-59.5 39q-27 23 -42 51.5t-21 62t-8 54.5t-2 58v427q0 82 -40 106t-132 24z" />
<glyph unicode="|" horiz-adv-x="512" d="M199 -390v1880h114v-1880h-114z" />
<glyph unicode="}" horiz-adv-x="703" d="M115 -214q38 0 63 2t54.5 7.5t47.5 17t35 30.5t25 50t8 73v443q0 27 1 42t7.5 42t18 42t36.5 32.5t59 24.5q-34 8 -59 25t-36.5 32.5t-18 42t-7.5 42t-1 42.5v443q0 42 -8 72.5t-25 49.5t-35 30.5t-47.5 17.5t-54.5 7.5t-63 1.5v92q46 0 70.5 -2t64.5 -7.5t72.5 -20 t59.5 -39.5q27 -23 42 -51.5t21 -62t8 -54.5t2 -57v-428q0 -82 40 -106t132 -24v-92q-92 0 -132 -23.5t-40 -106.5v-427q0 -36 -2 -57.5t-8 -55t-21 -62t-42 -51.5q-27 -25 -59.5 -39t-72.5 -20t-65 -8t-70 -2v92z" />
<glyph unicode="~" horiz-adv-x="1299" d="M176 403v122q46 61 118.5 105t156.5 44q50 0 97.5 -18t85.5 -43t73.5 -49.5t74.5 -43t78 -18.5q69 0 133.5 51t110.5 121h19v-122q-46 -61 -118.5 -105t-156.5 -44q-50 0 -97.5 18t-85.5 43t-73.5 50t-74.5 43t-78 18q-69 0 -133.5 -50.5t-110.5 -121.5h-19z" />
<glyph unicode="&#xa1;" horiz-adv-x="534" d="M183 886v138h138v-138h-138zM191 -390l15 1051h92l15 -1051h-122z" />
<glyph unicode="&#xa2;" horiz-adv-x="974" d="M115 596q0 237 124 370t332 144l14 204h103l-19 -204q107 -8 206 -36v-100h-15q-97 36 -201 44l-67 -846h25q120 0 243 46h15v-100q-130 -38 -262 -38h-28l-12 -202h-103l19 214q-176 32 -275 161t-99 343zM237 600q0 -164 68.5 -271t193.5 -142l65 829 q-155 -15 -241 -124t-86 -292z" />
<glyph unicode="&#xa3;" horiz-adv-x="1010" d="M117 0v82q252 128 252 384q0 73 -23 147h-224v92h186q-4 8 -19.5 37.5t-20 41t-17 36t-17.5 42t-12.5 42t-9.5 49.5t-2 50q0 153 101.5 239t286.5 86q117 0 223 -31v-95h-13q-109 36 -214 36q-130 0 -199.5 -63t-69.5 -168q0 -52 15 -97.5t48.5 -111.5t45.5 -93h363v-92 h-331q17 -61 17 -133q0 -141 -61 -239t-155 -149h640v-92h-790z" />
<glyph unicode="&#xa5;" horiz-adv-x="1215" d="M94 1314h133l388 -607l392 607h114l-439 -670h311v-90h-328v-170h328v-90h-328v-294h-115v294h-328v90h328v170h-328v90h307z" />
<glyph unicode="&#xa7;" horiz-adv-x="943" d="M115 611q0 103 59 162.5t141 80.5q-80 46 -125 100.5t-45 130.5q0 113 97.5 179t265.5 66q149 0 287 -46v-100h-16q-128 53 -275 54q-111 0 -175.5 -36.5t-64.5 -104.5q0 -42 24.5 -77.5t64 -60.5t90 -51.5t104 -48.5t104 -54.5t89.5 -67t64 -84t25 -110.5 q0 -96 -56.5 -160t-142.5 -93q164 -96 165 -229q0 -115 -97.5 -183.5t-269.5 -68.5q-153 0 -287 50v103h16q122 -61 277 -61q113 0 177.5 39t64.5 110q0 48 -30.5 87t-80 67.5t-110 57t-120.5 61t-109.5 71t-80 94t-30.5 123.5zM229 630q0 -29 8.5 -55.5t21 -46.5t35.5 -42 t42 -36t53.5 -33.5t55.5 -31t60 -30.5t59 -28q67 29 109 79t42 119q0 29 -9 55t-21.5 46t-35 41t-42 34.5t-53.5 31.5t-55 28.5t-60.5 28.5t-58.5 28q-63 -23 -107 -69t-44 -119z" />
<glyph unicode="&#xa8;" horiz-adv-x="1146" d="M336 1230v146h123v-146h-123zM688 1230v146h122v-146h-122z" />
<glyph unicode="&#xa9;" horiz-adv-x="1700" d="M115 657q0 193 81 347t236.5 243.5t360.5 89.5q204 0 360 -89.5t237 -243.5t81 -347t-81 -346.5t-237 -243.5t-360 -90t-360 89.5t-238 242.5q-80 155 -80 348zM218 659q0 -126 40 -234t112.5 -186.5t182.5 -124t242 -45.5q130 0 238.5 45.5t181.5 124t113 187.5t40 233 q0 168 -69 301t-199.5 211t-304.5 78q-176 0 -308 -78t-200.5 -211t-68.5 -301zM439 657q0 187 105.5 292.5t276.5 105.5q115 0 214 -42v-96h-15q-96 46 -200 46q-126 0 -196 -80.5t-70 -225.5t69 -225t197 -80q103 0 200 45h15v-91q-96 -42 -214 -42q-172 0 -277 103 t-105 290z" />
<glyph unicode="&#xaa;" horiz-adv-x="737" d="M76 955q0 118 100 168q38 19 97 29t104 11.5t139 1.5q0 73 -4 99.5t-19 49.5q-42 61 -157 62q-97 0 -183 -35h-15v84q99 27 212 27q172 0 231 -80q19 -27 28.5 -65t11.5 -65t2 -80v-390h-80l-23 118q-15 -57 -68 -95t-144 -38q-107 0 -169.5 52.5t-62.5 145.5zM187 959 q0 -57 36.5 -87.5t105.5 -30.5q55 0 94 19t58.5 49.5t27 59t7.5 55.5v73h-65q-21 0 -58.5 -2t-56.5 -6t-47.5 -9.5t-44 -16t-30.5 -25t-21 -34.5t-6 -45z" />
<glyph unicode="&#xab;" horiz-adv-x="1024" d="M122 592l268 386h130l-275 -382l275 -390h-130zM504 592l268 386h130l-275 -382l275 -390h-130z" />
<glyph unicode="&#xad;" horiz-adv-x="840" d="M122 543v99h596v-99h-596z" />
<glyph unicode="&#xae;" horiz-adv-x="970" d="M84 1219q0 172 112.5 282.5t288.5 110.5t288.5 -110.5t112.5 -282.5t-112.5 -283t-288.5 -111q-175 0 -288 111t-113 283zM168 1218.5q0 -141.5 87 -231t230 -89.5t230 89.5t87 231t-86.5 231.5t-230.5 90q-143 0 -231 -90q-86 -90 -86 -231.5zM329 1001v443h149 q84 0 126 -26q53 -34 53 -111q0 -96 -90 -132l109 -174h-95l-92 161h-76v-161h-84zM413 1223h72q88 0 88 80t-88 80h-72v-160z" />
<glyph unicode="&#xaf;" horiz-adv-x="1146" d="M329 1230v84h489v-84h-489z" />
<glyph unicode="&#xb0;" horiz-adv-x="932" d="M153 1196q0 134 87 218t226 84t226 -84t87 -218t-86.5 -218t-226.5 -84q-139 0 -227 84q-86 84 -86 218zM252 1196q0 -96 58.5 -159t155.5 -63t155.5 63t58.5 158.5t-58 159t-156 63.5t-157 -63q-57 -63 -57 -159z" />
<glyph unicode="&#xb1;" horiz-adv-x="1299" d="M214 0v92h871v-92h-871zM214 581v91h386v352h99v-352h386v-91h-386v-352h-99v352h-386z" />
<glyph unicode="&#xb2;" horiz-adv-x="668" d="M86 726v74q34 34 85 84t79.5 78t65 68t57.5 66.5t40 59t27.5 62.5t8.5 60q0 65 -42 102.5t-126 37.5q-80 0 -172 -31h-8v84q94 27 191 27q134 0 202 -55.5t68 -151.5q0 -42 -15.5 -84t-35.5 -76t-58 -78t-69.5 -74.5t-84.5 -82.5t-87 -86h365v-84h-491z" />
<glyph unicode="&#xb3;" horiz-adv-x="651" d="M88 741v82h8q80 -25 156 -24q88 0 138.5 37t50.5 104q0 80 -70 116q-50 27 -132 27h-15h-67v82h68q82 0 134 27q65 34 65 105q0 57 -40 89t-120 32q-78 0 -159 -27h-9v84q84 23 177 23q128 0 195 -51.5t67 -135.5q0 -69 -42 -117t-119 -61q76 -11 127 -62t51 -131 q0 -99 -79 -160.5t-221 -61.5q-92 0 -164 23z" />
<glyph unicode="&#xb4;" horiz-adv-x="1146" d="M520 1207l202 283h142l-260 -283h-84z" />
<glyph unicode="&#xb5;" d="M183 -390v1414h115v-604q0 -99 8.5 -150.5t37.5 -93.5q67 -99 212 -100q262 0 262 306v642h114v-1024h-84l-30 176q-17 -92 -87 -145.5t-177 -53.5q-172 0 -256 149v-516h-115z" />
<glyph unicode="&#xb7;" horiz-adv-x="229" d="M46 459v137h137v-137h-137z" />
<glyph unicode="&#xb9;" horiz-adv-x="485" d="M63 1339v84l214 67h76v-764h-105v671l-177 -58h-8z" />
<glyph unicode="&#xba;" horiz-adv-x="802" d="M76 1106q0 166 86 260t243 94q153 0 237 -90t84 -258t-86 -261.5t-241 -93.5q-153 0 -238 91.5t-85 257.5zM191 1110q0 -273 210 -273q214 0 214 269q0 134 -54.5 203.5t-161.5 69.5q-208 0 -208 -269z" />
<glyph unicode="&#xbb;" horiz-adv-x="1024" d="M122 206l275 382l-275 390h130l268 -386l-268 -386h-130zM504 206l275 382l-275 390h130l268 -386l-268 -386h-130z" />
<glyph unicode="&#xbd;" horiz-adv-x="1742" d="M40 688v44l146 48h42v-436h-56v388l-124 -44h-8zM107 -160l665 848l611 802h115v-15l-665 -848l-611 -803h-115v16zM1041 -54q20 19 51 48.5t47 45.5t38.5 39.5t34 39t23.5 35t17 37t5 35.5q0 38 -24 59t-72 21t-96 -18h-8v46q52 16 108 16q73 0 110.5 -32t37.5 -88 q0 -24 -8 -48t-20 -43t-34.5 -45t-40.5 -43t-50.5 -48t-52.5 -51h220v-44h-286v38z" />
<glyph unicode="&#xbf;" horiz-adv-x="810" d="M0 -57q0 63 17 115.5t49.5 94.5t61.5 70.5t74.5 67t64.5 57.5q38 38 61.5 73.5t33 78.5t11 72.5t1.5 88.5h115q0 -46 -1 -71.5t-9.5 -72.5t-23 -81.5t-45 -78.5t-74.5 -82q-11 -11 -45.5 -39t-51.5 -44t-45 -46.5t-42 -57.5t-25.5 -65t-11.5 -78q0 -122 87.5 -190 t244.5 -68q160 0 287 61h15v-100q-138 -53 -313 -53q-222 0 -329 95.5t-107 252.5zM363 886v138h138v-138h-138z" />
<glyph unicode="&#xc0;" horiz-adv-x="1199" d="M31 0l527 1437h107l504 -1437h-122l-151 443h-600l-158 -443h-107zM271 1830h160l237 -218h-103zM329 535h535l-260 764z" />
<glyph unicode="&#xc1;" horiz-adv-x="1199" d="M31 0l527 1437h107l504 -1437h-122l-151 443h-600l-158 -443h-107zM329 535h535l-260 764zM546 1612l237 218h160l-294 -218h-103z" />
<glyph unicode="&#xc2;" horiz-adv-x="1199" d="M31 0l527 1437h107l504 -1437h-122l-151 443h-600l-158 -443h-107zM321 1612l229 218h114l230 -218h-119l-172 157l-168 -157h-114zM329 535h535l-260 764z" />
<glyph unicode="&#xc3;" horiz-adv-x="1199" d="M31 0l527 1437h107l504 -1437h-122l-151 443h-600l-158 -443h-107zM321 1612v84q29 29 77.5 51t105.5 22q59 0 134.5 -34.5t113.5 -34.5q75 0 157 69h15v-84q-29 -29 -77.5 -51t-105.5 -22q-46 0 -90 17.5t-82 34.5t-73 17q-80 0 -160 -69h-15zM329 535h535l-260 764z " />
<glyph unicode="&#xc4;" horiz-adv-x="1199" d="M31 0l527 1437h107l504 -1437h-122l-151 443h-600l-158 -443h-107zM329 535h535l-260 764zM332 1612v138h130v-138h-130zM752 1612v138h130v-138h-130z" />
<glyph unicode="&#xc5;" horiz-adv-x="1199" d="M31 0l512 1393q-69 15 -107.5 61.5t-38.5 115.5q0 88 59.5 141.5t151.5 53.5t151 -53.5t59 -141.5q0 -67 -36.5 -112.5t-103.5 -62.5l491 -1395h-122l-151 443h-600l-158 -443h-107zM329 535h535l-260 764zM481.5 1570.5q-0.5 -55.5 34 -91t92.5 -35.5q57 0 91.5 35.5 t34.5 91t-34.5 90.5t-91.5 35q-58 0 -92 -36q-34 -34 -34.5 -89.5z" />
<glyph unicode="&#xc6;" horiz-adv-x="1765" d="M15 0l856 1437h757v-92h-619v-543h527v-91h-527v-619h649v-92h-764v443h-499l-257 -443h-123zM449 535h445v764z" />
<glyph unicode="&#xc7;" horiz-adv-x="1192" d="M115 718q0 120 22.5 226.5t72.5 200t124.5 161.5t184.5 107t245 39q174 0 313 -54v-99h-15q-147 61 -305 61q-130 0 -231.5 -49.5t-163.5 -136.5t-93.5 -200.5t-31.5 -247.5q0 -107 19 -202.5t61 -177.5t103 -141.5t149 -94t193 -34.5q155 0 300 62h15v-100 q-130 -50 -298 -53q107 -73 107 -184q0 -86 -56 -140.5t-167 -54.5q-52 0 -105 12v88h15q46 -15 92 -15q57 0 89.5 27.5t32.5 82.5q0 40 -21 83t-73 105q-122 8 -219.5 51.5t-163 111.5t-110.5 158.5t-65 192t-20 215.5z" />
<glyph unicode="&#xc8;" horiz-adv-x="1085" d="M199 0v1437h749v-92h-635v-543h543v-91h-543v-619h665v-92h-779zM237 1830h160l237 -218h-103z" />
<glyph unicode="&#xc9;" horiz-adv-x="1085" d="M199 0v1437h749v-92h-635v-543h543v-91h-543v-619h665v-92h-779zM512 1612l237 218h160l-294 -218h-103z" />
<glyph unicode="&#xca;" horiz-adv-x="1085" d="M199 0v1437h749v-92h-635v-543h543v-91h-543v-619h665v-92h-779zM287 1612l229 218h114l230 -218h-119l-172 157l-168 -157h-114z" />
<glyph unicode="&#xcb;" horiz-adv-x="1085" d="M199 0v1437h749v-92h-635v-543h543v-91h-543v-619h665v-92h-779zM344 1612v138h122v-138h-122zM680 1612v138h122v-138h-122z" />
<glyph unicode="&#xcc;" horiz-adv-x="512" d="M-78 1830h160l237 -218h-103zM199 0v1437h114v-1437h-114z" />
<glyph unicode="&#xcd;" horiz-adv-x="512" d="M197 1612l237 218h160l-294 -218h-103zM199 0v1437h114v-1437h-114z" />
<glyph unicode="&#xce;" horiz-adv-x="512" d="M-28 1612l229 218h114l230 -218h-119l-172 157l-168 -157h-114zM199 0v1437h114v-1437h-114z" />
<glyph unicode="&#xcf;" horiz-adv-x="512" d="M29 1612v138h122v-138h-122zM199 0v1437h114v-1437h-114zM365 1612v138h122v-138h-122z" />
<glyph unicode="&#xd0;" horiz-adv-x="1459" d="M31 711v91h221v635h329q71 0 113 -2t110.5 -9t128.5 -25t114 -48q298 -164 298 -635q0 -466 -313 -634q-53 -31 -111.5 -49t-123.5 -24.5t-105.5 -8.5t-110.5 -2h-329v711h-221zM367 92h221q80 0 128 2t124.5 21t137.5 53q245 141 245 550t-245 551q-61 34 -137.5 53 t-124 21t-128.5 2h-221v-543h386v-91h-386v-619z" />
<glyph unicode="&#xd1;" horiz-adv-x="1451" d="M199 0v1437h122l825 -1254v1254h107v-1437h-114l-833 1261v-1261h-107zM440 1612v84q29 29 77.5 51t105.5 22q59 0 134.5 -34.5t113.5 -34.5q75 0 157 69h15v-84q-29 -29 -77.5 -51t-105.5 -22q-46 0 -90 17.5t-82 34.5t-73 17q-80 0 -160 -69h-15z" />
<glyph unicode="&#xd2;" horiz-adv-x="1467" d="M115 711q0 357 162 553t462 196q294 0 454 -189.5t160 -544.5q0 -357 -162.5 -553t-462.5 -196q-294 0 -453.5 189t-159.5 545zM237 718q0 -321 128 -485q130 -164 369 -164t367.5 164t128.5 485t-129 485.5t-367 164.5q-239 0 -368 -164.5t-129 -485.5zM397 1830h160 l237 -218h-103z" />
<glyph unicode="&#xd3;" horiz-adv-x="1467" d="M115 711q0 357 162 553t462 196q294 0 454 -189.5t160 -544.5q0 -357 -162.5 -553t-462.5 -196q-294 0 -453.5 189t-159.5 545zM237 718q0 -321 128 -485q130 -164 369 -164t367.5 164t128.5 485t-129 485.5t-367 164.5q-239 0 -368 -164.5t-129 -485.5zM672 1612 l237 218h160l-294 -218h-103z" />
<glyph unicode="&#xd4;" horiz-adv-x="1467" d="M115 711q0 357 162 553t462 196q294 0 454 -189.5t160 -544.5q0 -357 -162.5 -553t-462.5 -196q-294 0 -453.5 189t-159.5 545zM237 718q0 -321 128 -485q130 -164 369 -164t367.5 164t128.5 485t-129 485.5t-367 164.5q-239 0 -368 -164.5t-129 -485.5zM447 1612 l229 218h114l230 -218h-119l-172 157l-168 -157h-114z" />
<glyph unicode="&#xd5;" horiz-adv-x="1467" d="M115 711q0 357 162 553t462 196q294 0 454 -189.5t160 -544.5q0 -357 -162.5 -553t-462.5 -196q-294 0 -453.5 189t-159.5 545zM237 718q0 -321 128 -485q130 -164 369 -164t367.5 164t128.5 485t-129 485.5t-367 164.5q-239 0 -368 -164.5t-129 -485.5zM447 1612v84 q29 29 77.5 51t105.5 22q59 0 134.5 -34.5t113.5 -34.5q75 0 157 69h15v-84q-29 -29 -77.5 -51t-105.5 -22q-46 0 -90 17.5t-82 34.5t-73 17q-80 0 -160 -69h-15z" />
<glyph unicode="&#xd6;" horiz-adv-x="1467" d="M115 711q0 357 162 553t462 196q294 0 454 -189.5t160 -544.5q0 -357 -162.5 -553t-462.5 -196q-294 0 -453.5 189t-159.5 545zM237 718q0 -321 128 -485q130 -164 369 -164t367.5 164t128.5 485t-129 485.5t-367 164.5q-239 0 -368 -164.5t-129 -485.5zM458 1612v138 h130v-138h-130zM878 1612v138h130v-138h-130z" />
<glyph unicode="&#xd7;" horiz-adv-x="1299" d="M225 193l360 348l-360 344l73 72l352 -355l351 355l73 -72l-359 -348l359 -344l-73 -73l-351 356l-352 -356z" />
<glyph unicode="&#xd8;" horiz-adv-x="1467" d="M107 -53l168 223q-160 193 -160 546q0 355 163 549.5t458 194.5q235 0 387 -127l115 157h122l-170 -223q162 -191 162.5 -546.5t-163 -549.5t-457.5 -194q-241 0 -390 126l-113 -156h-122zM237 718q0 -290 109 -456l716 986q-122 120 -328 120q-239 0 -368 -164.5 t-129 -485.5zM405 189q123 -120 329 -120q239 0 367.5 164t128.5 485q0 290 -109 455z" />
<glyph unicode="&#xd9;" horiz-adv-x="1413" d="M201 550v887h114v-910q0 -109 18.5 -188t62 -142t123 -95.5t194.5 -32.5t194 32.5t123 95.5t62 142t18 188v910h107v-887q0 -48 -2 -89t-6.5 -82t-16 -84t-34.5 -89.5t-56 -83.5q-67 -73 -171 -109t-226 -36t-224.5 36.5t-165.5 108.5q-32 36 -55 83t-34.5 90t-16.5 84 t-6.5 82t-1.5 89zM359 1830h160l237 -218h-103z" />
<glyph unicode="&#xda;" horiz-adv-x="1413" d="M201 550v887h114v-910q0 -109 18.5 -188t62 -142t123 -95.5t194.5 -32.5t194 32.5t123 95.5t62 142t18 188v910h107v-887q0 -48 -2 -89t-6.5 -82t-16 -84t-34.5 -89.5t-56 -83.5q-67 -73 -171 -109t-226 -36t-224.5 36.5t-165.5 108.5q-32 36 -55 83t-34.5 90t-16.5 84 t-6.5 82t-1.5 89zM634 1612l237 218h160l-294 -218h-103z" />
<glyph unicode="&#xdb;" horiz-adv-x="1413" d="M201 550v887h114v-910q0 -109 18.5 -188t62 -142t123 -95.5t194.5 -32.5t194 32.5t123 95.5t62 142t18 188v910h107v-887q0 -48 -2 -89t-6.5 -82t-16 -84t-34.5 -89.5t-56 -83.5q-67 -73 -171 -109t-226 -36t-224.5 36.5t-165.5 108.5q-32 36 -55 83t-34.5 90t-16.5 84 t-6.5 82t-1.5 89zM409 1612l229 218h114l230 -218h-119l-172 157l-168 -157h-114z" />
<glyph unicode="&#xdc;" horiz-adv-x="1413" d="M201 550v887h114v-910q0 -109 18.5 -188t62 -142t123 -95.5t194.5 -32.5t194 32.5t123 95.5t62 142t18 188v910h107v-887q0 -48 -2 -89t-6.5 -82t-16 -84t-34.5 -89.5t-56 -83.5q-67 -73 -171 -109t-226 -36t-224.5 36.5t-165.5 108.5q-32 36 -55 83t-34.5 90t-16.5 84 t-6.5 82t-1.5 89zM420 1612v138h130v-138h-130zM840 1612v138h130v-138h-130z" />
<glyph unicode="&#xdd;" horiz-adv-x="1157" d="M31 1437h133l424 -757l428 757h111l-493 -860v-577h-114v577zM527 1612l237 218h160l-294 -218h-103z" />
<glyph unicode="&#xde;" horiz-adv-x="1130" d="M199 0v1437h114v-287h176q82 0 132.5 -2t131 -21t133.5 -53q82 -53 121.5 -144t39.5 -200q0 -122 -46 -214t-130 -145q-73 -48 -160.5 -62.5t-221.5 -14.5h-176v-294h-114zM313 386h214q59 0 94.5 2t93 16t95.5 43q59 42 87 116.5t28 158.5t-28 158.5t-87 116.5 q-38 29 -95.5 43.5t-92.5 16t-95 1.5h-214v-672z" />
<glyph unicode="&#xdf;" horiz-adv-x="1100" d="M183 0v1024q0 65 2 103t14.5 97.5t37.5 105.5q90 160 313 160q157 0 246.5 -75.5t89.5 -207.5q0 -52 -15 -95.5t-38 -73t-51.5 -56.5t-57.5 -50t-51.5 -45t-38 -49.5t-15.5 -58.5q0 -38 22 -68.5t57.5 -55.5t77.5 -49.5t84 -55t77 -66t57 -90t22 -119.5q0 -75 -26.5 -132 t-74.5 -90.5t-107 -50.5t-128 -17q-115 0 -214 38v99h15q103 -46 209 -46q99 0 155.5 50t56.5 134q0 52 -22 93t-57.5 70.5t-77.5 56t-84 54.5t-77.5 58.5t-57.5 76.5t-22 101q0 46 15.5 83t38.5 62t51.5 48t57 45t51.5 45.5t38.5 60t15.5 78.5q0 90 -59.5 148t-162.5 58 q-160 0 -221 -137q-15 -32 -22 -72.5t-8 -71t-1 -93.5v-1024h-115z" />
<glyph unicode="&#xe0;" horiz-adv-x="1008" d="M99 264q0 189 176 263q55 23 119.5 33.5t138 13.5t193.5 3q0 76 -2 119t-9.5 81.5t-26.5 70.5q-57 99 -229 100q-136 0 -260 -54h-16v99q134 46 287 46q225 0 309 -114q29 -40 42.5 -89t16.5 -102.5t3 -137.5v-596h-84l-31 183q-19 -86 -93.5 -146t-206.5 -60 q-147 0 -237 76.5t-90 210.5zM212 1490h141l203 -283h-84zM222 266q0 -92 59 -144.5t158 -52.5q78 0 141.5 34.5t99.5 102.5q46 90 46 260v23q-130 0 -195 -3t-116.5 -13.5t-93.5 -33.5q-99 -56 -99 -173z" />
<glyph unicode="&#xe1;" horiz-adv-x="1008" d="M99 264q0 189 176 263q55 23 119.5 33.5t138 13.5t193.5 3q0 76 -2 119t-9.5 81.5t-26.5 70.5q-57 99 -229 100q-136 0 -260 -54h-16v99q134 46 287 46q225 0 309 -114q29 -40 42.5 -89t16.5 -102.5t3 -137.5v-596h-84l-31 183q-19 -86 -93.5 -146t-206.5 -60 q-147 0 -237 76.5t-90 210.5zM222 266q0 -92 59 -144.5t158 -52.5q78 0 141.5 34.5t99.5 102.5q46 90 46 260v23q-130 0 -195 -3t-116.5 -13.5t-93.5 -33.5q-99 -56 -99 -173zM449 1207l202 283h142l-260 -283h-84z" />
<glyph unicode="&#xe2;" horiz-adv-x="1008" d="M52 138q0 99 92 138q29 12 62.5 17.5t72 7t101.5 1.5q0 40 -1 62.5t-5 42.5t-14 37q-30 52 -120 52q-71 0 -136 -28h-8v52q70 24 150 24q118 0 162 -60q15 -21 22 -46.5t8.5 -53.5t1.5 -72v-312h-44l-16 96q-10 -45 -49 -76.5t-108 -31.5q-77 0 -124 40t-47 110zM116 139 q0 -48 31 -75.5t83 -27.5q41 0 74 18t52 54q24 47 24 136v12q-68 0 -102 -1.5t-61 -7t-49 -17.5q-52 -30 -52 -91zM235 1207l229 283h77l229 -283h-103l-168 195l-168 -195h-96z" />
<glyph unicode="&#xe3;" horiz-adv-x="1008" d="M99 264q0 189 176 263q55 23 119.5 33.5t138 13.5t193.5 3q0 76 -2 119t-9.5 81.5t-26.5 70.5q-57 99 -229 100q-136 0 -260 -54h-16v99q134 46 287 46q225 0 309 -114q29 -40 42.5 -89t16.5 -102.5t3 -137.5v-596h-84l-31 183q-19 -86 -93.5 -146t-206.5 -60 q-147 0 -237 76.5t-90 210.5zM222 266q0 -92 59 -144.5t158 -52.5q78 0 141.5 34.5t99.5 102.5q46 90 46 260v23q-130 0 -195 -3t-116.5 -13.5t-93.5 -33.5q-99 -56 -99 -173zM242 1230v84q29 31 72 52t89 21q50 0 121.5 -34.5t103.5 -34.5q65 0 134 69h15v-84 q-27 -31 -69.5 -52t-90.5 -21q-50 0 -120.5 34.5t-103.5 34.5q-67 0 -135 -69h-16z" />
<glyph unicode="&#xe4;" horiz-adv-x="1008" d="M99 264q0 189 176 263q55 23 119.5 33.5t138 13.5t193.5 3q0 76 -2 119t-9.5 81.5t-26.5 70.5q-57 99 -229 100q-136 0 -260 -54h-16v99q134 46 287 46q225 0 309 -114q29 -40 42.5 -89t16.5 -102.5t3 -137.5v-596h-84l-31 183q-19 -86 -93.5 -146t-206.5 -60 q-147 0 -237 76.5t-90 210.5zM222 266q0 -92 59 -144.5t158 -52.5q78 0 141.5 34.5t99.5 102.5q46 90 46 260v23q-130 0 -195 -3t-116.5 -13.5t-93.5 -33.5q-99 -56 -99 -173zM265 1230v146h123v-146h-123zM617 1230v146h122v-146h-122z" />
<glyph unicode="&#xe5;" horiz-adv-x="1008" d="M52 138q0 99 92 138q29 12 62.5 17.5t72 7t101.5 1.5q0 40 -1 62.5t-5 42.5t-14 37q-30 52 -120 52q-71 0 -136 -28h-8v52q70 24 150 24q118 0 162 -60q15 -21 22 -46.5t8.5 -53.5t1.5 -72v-312h-44l-16 96q-10 -45 -49 -76.5t-108 -31.5q-77 0 -124 40t-47 110zM116 139 q0 -48 31 -75.5t83 -27.5q41 0 74 18t52 54q24 47 24 136v12q-68 0 -102 -1.5t-61 -7t-49 -17.5q-52 -30 -52 -91zM308 1330q0 80 55 128t139 47q84 0 140 -47q55 -48 55 -128t-55 -128t-140 -48q-84 0 -139 48t-55 128zM392 1330q0 -50 29 -79q30 -29 81 -28q52 0 82 28 q30 29 29 79q0 50 -29 78q-30 29 -82 29q-51 0 -82 -29q-29 -29 -28 -78z" />
<glyph unicode="&#xe6;" horiz-adv-x="1627" d="M99 267q0 172 142 249q42 23 93.5 36t120 19t123 8t148.5 2q0 76 -2 111.5t-9.5 80.5t-26.5 75q-57 99 -229 100q-139 0 -260 -54h-16v99q130 46 289 46q279 0 338 -179q38 76 120.5 129.5t206.5 53.5q222 0 315 -176q29 -53 43 -128.5t16 -122.5t2 -123h-672 q0 -203 87.5 -310t259.5 -107q130 0 256 54h16v-99q-118 -46 -276 -46q-322 0 -416 252q-31 -122 -118.5 -187t-223.5 -65q-147 0 -237 72.5t-90 209.5zM222 269q0 -88 57 -140.5t160 -52.5q172 0 241 134q46 90 46 260v23q-172 0 -262 -8.5t-143 -37.5q-50 -27 -74.5 -74 t-24.5 -104zM841 581h550q0 181 -65 275.5t-193 94.5q-134 0 -207.5 -97t-84.5 -273z" />
<glyph unicode="&#xe7;" horiz-adv-x="913" d="M115 512q0 246 124 386.5t346 140.5q122 0 229 -38v-99h-15q-105 46 -214 46q-164 0 -256 -114t-92 -314q0 -203 93.5 -323.5t256.5 -120.5q107 0 212 46h15v-99q-84 -32 -210 -38q107 -73 107 -184q0 -86 -56.5 -140.5t-167.5 -54.5q-52 0 -105 12v88h15q46 -15 92 -15 q57 0 89.5 27.5t32.5 82.5q0 40 -21 83t-72 105q-191 19 -297 157.5t-106 365.5z" />
<glyph unicode="&#xe8;" horiz-adv-x="1024" d="M115 512q0 252 112.5 393.5t307.5 141.5q220 0 313 -176q29 -53 42.5 -119t16 -122.5t2.5 -132.5h-672q0 -206 88 -313.5t260 -107.5q126 0 256 54h15v-99q-126 -46 -273 -46q-233 0 -346 126q-122 134 -122 401zM237 585h550q0 181 -65 275.5t-193 94.5 q-134 0 -207.5 -97t-84.5 -273zM247 1490h141l203 -283h-84z" />
<glyph unicode="&#xe9;" horiz-adv-x="1024" d="M115 512q0 252 112.5 393.5t307.5 141.5q220 0 313 -176q29 -53 42.5 -119t16 -122.5t2.5 -132.5h-672q0 -206 88 -313.5t260 -107.5q126 0 256 54h15v-99q-126 -46 -273 -46q-233 0 -346 126q-122 134 -122 401zM237 585h550q0 181 -65 275.5t-193 94.5 q-134 0 -207.5 -97t-84.5 -273zM484 1207l202 283h142l-260 -283h-84z" />
<glyph unicode="&#xea;" horiz-adv-x="1024" d="M60 268q0 132 59 206t161 74q115 0 164 -92q15 -28 22 -62.5t8.5 -64t1.5 -69.5h-352q0 -108 46 -164t136 -56q66 0 134 28h8v-52q-66 -24 -143 -24q-122 0 -181 66q-64 70 -64 210zM124 306h288q0 95 -34 144.5t-101 49.5q-70 0 -108.5 -51t-44.5 -143zM269 1207 l230 283h76l229 -283h-103l-168 195l-168 -195h-96z" />
<glyph unicode="&#xeb;" horiz-adv-x="1024" d="M115 512q0 252 112.5 393.5t307.5 141.5q220 0 313 -176q29 -53 42.5 -119t16 -122.5t2.5 -132.5h-672q0 -206 88 -313.5t260 -107.5q126 0 256 54h15v-99q-126 -46 -273 -46q-233 0 -346 126q-122 134 -122 401zM237 585h550q0 181 -65 275.5t-193 94.5 q-134 0 -207.5 -97t-84.5 -273zM300 1230v146h123v-146h-123zM652 1230v146h122v-146h-122z" />
<glyph unicode="&#xec;" horiz-adv-x="481" d="M-183 780h74l106 -148h-44zM183 0v1024h115v-1024h-115z" />
<glyph unicode="&#xed;" horiz-adv-x="481" d="M-59 632l106 148h74l-136 -148h-44zM183 0v1024h115v-1024h-115z" />
<glyph unicode="&#xee;" horiz-adv-x="481" d="M-25 1207l229 283h77l229 -283h-103l-168 195l-168 -195h-96zM183 0v1024h115v-1024h-115z" />
<glyph unicode="&#xef;" horiz-adv-x="481" d="M-147 644v76h64v-76h-64zM21 644v76h64v-76h-64zM183 0v1024h115v-1024h-115z" />
<glyph unicode="&#xf0;" horiz-adv-x="1096" d="M115 420q0 191 120 317.5t309 126.5q229 0 308 -199q-34 264 -231 500l-285 -152v87l231 125q-157 164 -330 250v15h160q145 -88 266 -212l239 128v-88l-186 -101q254 -308 255 -699q0 -283 -140 -426q-111 -115 -288 -115q-187 0 -307.5 126t-120.5 317zM237 420.5 q0 -156.5 87 -254t222 -97.5q136 0 223 97.5t87 254t-88 253.5q-86 97 -222 98q-136 0 -222.5 -97.5t-86.5 -254z" />
<glyph unicode="&#xf1;" d="M183 0v1024h84l31 -176q38 199 296 199q204 0 292 -130q38 -59 50 -127t12 -186v-604h-115v623q0 50 -3 91t-13.5 72.5t-29.5 61.5q-69 99 -220 100q-269 0 -269 -306v-642h-115zM303 1230v84q29 31 72 52t89 21q50 0 121.5 -34.5t103.5 -34.5q65 0 134 69h15v-84 q-27 -31 -69.5 -52t-90.5 -21q-50 0 -120.5 34.5t-103.5 34.5q-67 0 -135 -69h-16z" />
<glyph unicode="&#xf2;" horiz-adv-x="1123" d="M115 508q0 252 118.5 395.5t331.5 143.5q210 0 327 -139.5t117 -391.5t-118.5 -395.5t-332.5 -143.5q-210 0 -326.5 139.5t-116.5 391.5zM237 512.5q0 -221.5 82 -332.5t243 -111q160 0 242 110.5t82 332.5t-82 332.5t-242 110.5t-242.5 -110.5t-82.5 -332zM273 1490h141 l203 -283h-84z" />
<glyph unicode="&#xf3;" horiz-adv-x="1123" d="M115 508q0 252 118.5 395.5t331.5 143.5q210 0 327 -139.5t117 -391.5t-118.5 -395.5t-332.5 -143.5q-210 0 -326.5 139.5t-116.5 391.5zM237 512.5q0 -221.5 82 -332.5t243 -111q160 0 242 110.5t82 332.5t-82 332.5t-242 110.5t-242.5 -110.5t-82.5 -332zM510 1207 l202 283h142l-260 -283h-84z" />
<glyph unicode="&#xf4;" horiz-adv-x="1123" d="M60 266q0 132 62 207t174 75q110 0 171 -73t61 -205t-62 -207t-174 -75q-110 0 -171 73t-61 205zM124 268q0 -116 43 -174t127 -58t127 58t43 174t-43 174t-127 58t-127 -58t-43 -174zM296 1207l229 283h77l229 -283h-103l-168 195l-168 -195h-96z" />
<glyph unicode="&#xf5;" horiz-adv-x="1123" d="M115 508q0 252 118.5 395.5t331.5 143.5q210 0 327 -139.5t117 -391.5t-118.5 -395.5t-332.5 -143.5q-210 0 -326.5 139.5t-116.5 391.5zM237 512.5q0 -221.5 82 -332.5t243 -111q160 0 242 110.5t82 332.5t-82 332.5t-242 110.5t-242.5 -110.5t-82.5 -332zM303 1230v84 q29 31 72 52t89 21q50 0 121.5 -34.5t103.5 -34.5q65 0 134 69h15v-84q-27 -31 -69.5 -52t-90.5 -21q-50 0 -120.5 34.5t-103.5 34.5q-67 0 -135 -69h-16z" />
<glyph unicode="&#xf6;" horiz-adv-x="1123" d="M115 508q0 252 118.5 395.5t331.5 143.5q210 0 327 -139.5t117 -391.5t-118.5 -395.5t-332.5 -143.5q-210 0 -326.5 139.5t-116.5 391.5zM237 512.5q0 -221.5 82 -332.5t243 -111q160 0 242 110.5t82 332.5t-82 332.5t-242 110.5t-242.5 -110.5t-82.5 -332zM326 1230v146 h123v-146h-123zM678 1230v146h122v-146h-122z" />
<glyph unicode="&#xf8;" horiz-adv-x="1123" d="M115 512q0 252 120 393.5t327 141.5q132 0 237 -63l84 139h107l-125 -193q144 -143 144 -418q0 -252 -120.5 -393.5t-326.5 -141.5q-134 0 -237 63l-84 -139h-107l124 193q-143 143 -143 418zM237 512q0 -214 78 -327l432 715q-76 55 -185 55q-160 0 -242.5 -110.5 t-82.5 -332.5zM374 122q73 -53 188 -53q160 0 242 110.5t82 332.5q0 214 -78 327z" />
<glyph unicode="&#xf9;" d="M183 420v604h115v-604q0 -99 8.5 -149.5t37.5 -94.5q67 -99 212 -100q262 0 262 306v642h114v-1024h-84l-30 176q-17 -92 -88 -145.5t-201 -53.5q-197 0 -284 130q-32 48 -47 113t-15 200zM270 1490h141l203 -283h-84z" />
<glyph unicode="&#xfa;" d="M183 420v604h115v-604q0 -99 8.5 -149.5t37.5 -94.5q67 -99 212 -100q262 0 262 306v642h114v-1024h-84l-30 176q-17 -92 -88 -145.5t-201 -53.5q-197 0 -284 130q-32 48 -47 113t-15 200zM507 1207l202 283h142l-260 -283h-84z" />
<glyph unicode="&#xfb;" d="M96 220v316h60v-316q0 -52 4.5 -78.5t19.5 -49.5q35 -52 111 -52q137 0 137 160v336h60v-536h-44l-16 92q-9 -48 -46 -76t-105 -28q-103 0 -149 68q-17 25 -24.5 59t-7.5 105zM292 1207l230 283h76l229 -283h-103l-168 195l-168 -195h-96z" />
<glyph unicode="&#xfc;" d="M183 420v604h115v-604q0 -99 8.5 -149.5t37.5 -94.5q67 -99 212 -100q262 0 262 306v642h114v-1024h-84l-30 176q-17 -92 -88 -145.5t-201 -53.5q-197 0 -284 130q-32 48 -47 113t-15 200zM323 1230v146h123v-146h-123zM675 1230v146h122v-146h-122z" />
<glyph unicode="&#xfd;" horiz-adv-x="1092" d="M99 1024h138l313 -856l329 856h114l-557 -1414h-115l168 421zM491 1207l202 283h142l-260 -283h-84z" />
<glyph unicode="&#xfe;" horiz-adv-x="1161" d="M183 -390v1880h115v-657q23 96 109 155t214 59q195 0 310.5 -141.5t115.5 -391.5q0 -252 -116.5 -394.5t-321.5 -142.5q-237 0 -311 199v-566h-115zM290 512q0 -206 79 -324.5t239 -118.5q84 0 146 34.5t99 95.5t54.5 139t17.5 174t-17.5 174t-54.5 139t-99 95.5 t-146 34.5q-160 0 -239 -118.5t-79 -324.5z" />
<glyph unicode="&#xff;" horiz-adv-x="1092" d="M99 1024h138l313 -856l329 856h114l-557 -1414h-115l168 421zM307 1230v146h123v-146h-123zM659 1230v146h122v-146h-122z" />
<glyph unicode="&#x152;" horiz-adv-x="2021" d="M115 715q0 422 229 603q53 42 112.5 69t122.5 36.5t99.5 11.5t93.5 2h1112v-92h-829q99 -48 175.5 -184.5t89.5 -358.5h472v-91h-470q0 -136 -26.5 -247.5t-69 -184.5t-89 -118.5t-98.5 -68.5h875v-92h-1157q-57 0 -93.5 2t-99.5 11.5t-121.5 36t-110.5 68.5 q-218 178 -217 597zM237 718.5q0 -316.5 126 -473.5t355 -157t355.5 156.5t126.5 473.5t-126 474t-356 157q-229 0 -355 -157t-126 -473.5z" />
<glyph unicode="&#x153;" horiz-adv-x="1749" d="M115 508q0 252 114.5 395.5t313.5 143.5q130 0 227 -65t136 -191q13 48 39 91t68 81t105 61t141 23q222 0 315 -176q29 -53 43.5 -128.5t16 -122.5t1.5 -123h-672q0 -206 88 -313.5t260 -107.5q130 0 256 54h15v-99q-118 -46 -275 -46q-321 0 -405 248 q-34 -118 -129 -187t-234 -69q-197 0 -310.5 140.5t-113.5 390.5zM237 512q0 -218 78 -331t228 -112q149 0 227 112.5t78 330.5t-78 330.5t-227 112.5t-227.5 -112.5t-78.5 -330.5zM963 585h550q0 181 -65 275.5t-193 94.5q-134 0 -207.5 -97t-84.5 -273z" />
<glyph unicode="&#x178;" horiz-adv-x="1157" d="M31 1437h133l424 -757l428 757h111l-493 -860v-577h-114v577zM313 1612v138h130v-138h-130zM733 1612v138h130v-138h-130z" />
<glyph unicode="&#x2c6;" horiz-adv-x="1146" d="M306 1207l229 283h76l230 -283h-104l-168 195l-168 -195h-95z" />
<glyph unicode="&#x2dc;" horiz-adv-x="1146" d="M313 1230v84q29 31 72 52t89 21q50 0 121.5 -34.5t103.5 -34.5q65 0 134 69h15v-84q-27 -31 -69.5 -52t-90.5 -21q-50 0 -120.5 34.5t-103.5 34.5q-67 0 -135 -69h-16z" />
<glyph unicode="&#x2000;" horiz-adv-x="915" />
<glyph unicode="&#x2001;" horiz-adv-x="1830" />
<glyph unicode="&#x2002;" horiz-adv-x="915" />
<glyph unicode="&#x2003;" horiz-adv-x="1830" />
<glyph unicode="&#x2004;" horiz-adv-x="610" />
<glyph unicode="&#x2005;" horiz-adv-x="457" />
<glyph unicode="&#x2006;" horiz-adv-x="305" />
<glyph unicode="&#x2007;" horiz-adv-x="305" />
<glyph unicode="&#x2008;" horiz-adv-x="228" />
<glyph unicode="&#x2009;" horiz-adv-x="366" />
<glyph unicode="&#x200a;" horiz-adv-x="101" />
<glyph unicode="&#x2010;" horiz-adv-x="840" d="M122 543v99h596v-99h-596z" />
<glyph unicode="&#x2011;" horiz-adv-x="840" d="M122 543v99h596v-99h-596z" />
<glyph unicode="&#x2012;" horiz-adv-x="840" d="M122 543v99h596v-99h-596z" />
<glyph unicode="&#x2013;" horiz-adv-x="1283" d="M153 546v92h978v-92h-978z" />
<glyph unicode="&#x2014;" horiz-adv-x="2009" d="M153 546v92h1704v-92h-1704z" />
<glyph unicode="&#x2018;" horiz-adv-x="508" d="M138 1024l122 466h80l-76 -466h-126z" />
<glyph unicode="&#x2019;" horiz-adv-x="508" d="M153 1024l76 466h126l-122 -466h-80z" />
<glyph unicode="&#x201c;" horiz-adv-x="756" d="M138 1024l122 466h76l-76 -466h-122zM390 1024l122 466h76l-76 -466h-122z" />
<glyph unicode="&#x201d;" horiz-adv-x="756" d="M153 1024l76 466h123l-123 -466h-76zM405 1024l76 466h123l-123 -466h-76z" />
<glyph unicode="&#x201e;" horiz-adv-x="695" d="M115 -233l76 466h122l-122 -466h-76zM367 -233l76 466h122l-122 -466h-76z" />
<glyph unicode="&#x2022;" horiz-adv-x="435" d="M76 489v214h214v-214h-214z" />
<glyph unicode="&#x2026;" horiz-adv-x="1589" d="M229 0v138h130v-138h-130zM730 0v138h130v-138h-130zM1230 0v138h130v-138h-130z" />
<glyph unicode="&#x202f;" horiz-adv-x="366" />
<glyph unicode="&#x2039;" horiz-adv-x="641" d="M122 592l268 386h130l-275 -382l275 -390h-130z" />
<glyph unicode="&#x203a;" horiz-adv-x="641" d="M122 206l275 382l-275 390h130l268 -386l-268 -386h-130z" />
<glyph unicode="&#x205f;" horiz-adv-x="457" />
<glyph unicode="&#x20ac;" horiz-adv-x="1262" d="M94 459v89h152q-4 34 -3 109q0 71 3 105h-152v92h168q21 103 65 187t112.5 150t170 101.5t229.5 35.5q160 0 288 -48v-97h-15q-132 55 -279 55q-187 0 -302 -104t-153 -280h636l-22 -92h-629q-4 -65 -4 -97q0 -59 6 -117h573l-23 -89h-533q42 -176 156.5 -279.5 t298.5 -103.5q141 0 275 56h15v-98q-130 -48 -288 -47q-126 0 -228.5 35t-171 100t-112.5 149t-65 188h-168z" />
<glyph unicode="&#x2122;" horiz-adv-x="1436" d="M46 1360v77h474v-77h-191v-523h-92v523h-191zM657 837v600h126l214 -463l214 463h126v-600h-91v500l-211 -458h-84l-210 458v-500h-84z" />
<glyph unicode="&#x25fc;" horiz-adv-x="1022" d="M0 0v1022h1022v-1022h-1022z" />
</font>
</defs>
</svg>
