<?xml version="1.0" encoding="UTF-8" standalone="no"?>
<svg
   xmlns:dc="http://purl.org/dc/elements/1.1/"
   xmlns:cc="http://creativecommons.org/ns#"
   xmlns:rdf="http://www.w3.org/1999/02/22-rdf-syntax-ns#"
   xmlns:svg="http://www.w3.org/2000/svg"
   xmlns="http://www.w3.org/2000/svg"
   xmlns:sodipodi="http://sodipodi.sourceforge.net/DTD/sodipodi-0.dtd"
   xmlns:inkscape="http://www.inkscape.org/namespaces/inkscape"
   height="320"
   id="Layer_1"
   version="1.1"
   viewBox="0 0 192 320"
   width="192"
   xml:space="preserve"
   enable-background="new 0 0 512 512"
   inkscape:version="0.48.4 r9939"
   sodipodi:docname="arrow-backward.svg"><metadata
     id="metadata3039"><rdf:RDF><cc:Work
         rdf:about=""><dc:format>image/svg+xml</dc:format><dc:type
           rdf:resource="http://purl.org/dc/dcmitype/StillImage" /><dc:title></dc:title></cc:Work></rdf:RDF></metadata><defs
     id="defs3037" /><sodipodi:namedview
     pagecolor="#ffffff"
     bordercolor="#666666"
     borderopacity="1"
     objecttolerance="10"
     gridtolerance="10"
     guidetolerance="10"
     inkscape:pageopacity="0"
     inkscape:pageshadow="2"
     inkscape:window-width="1366"
     inkscape:window-height="744"
     id="namedview3035"
     showgrid="false"
     inkscape:snap-page="true"
     inkscape:zoom="1.1660156"
     inkscape:cx="208.366"
     inkscape:cy="64.80402"
     inkscape:window-x="0"
     inkscape:window-y="24"
     inkscape:window-maximized="1"
     inkscape:current-layer="Layer_1"
     fit-margin-top="0"
     fit-margin-left="0"
     fit-margin-right="0"
     fit-margin-bottom="0" /><polygon
     points="160,383.6 287.3,256 160,128.4 192.3,96 352,256 352,256 352,256 192.3,416 "
     id="polygon3033"
     transform="matrix(-1,0,0,1,352,-96)"
     style="fill:#1abc9c;fill-opacity:1" /><path
     style="opacity:0;fill:#00b057;fill-opacity:1;stroke:none"
     d="M 16.624346,303.34887 0.9803803,287.68773 64.370493,223.80099 127.76061,159.91424 64.156179,96.236198 0.5517529,32.558155 16.417535,16.692372 32.283316,0.8265904 111.82542,80.372138 191.36751,159.91769 111.81791,239.46384 32.268312,319.01 16.624346,303.34887 z"
     id="path3133"
     inkscape:connector-curvature="0" /><path
     style="opacity:0;fill:#00b057;fill-opacity:1"
     d="M 16.624346,303.34887 0.9803803,287.68773 64.370493,223.80099 127.76061,159.91424 64.156179,96.236198 0.5517529,32.558155 16.417535,16.692372 32.283316,0.8265904 111.82542,80.372138 191.36751,159.91769 111.81791,239.46384 32.268312,319.01 16.624346,303.34887 z"
     id="path3903"
     inkscape:connector-curvature="0" /><path
     style="opacity:0;fill:#808080;fill-opacity:1"
     d="M 16.624346,303.34887 0.9803803,287.68773 64.370493,223.80099 127.76061,159.91424 64.156179,96.236198 0.5517529,32.558155 16.417535,16.692372 32.283316,0.8265904 111.82542,80.372138 191.36751,159.91769 111.81791,239.46384 32.268312,319.01 16.624346,303.34887 z"
     id="path3905"
     inkscape:connector-curvature="0" /><path
     style="opacity:0;fill:#808080;fill-opacity:1"
     d="M 16.624346,303.34887 0.9803803,287.68773 64.370493,223.80099 127.76061,159.91424 64.156179,96.236198 0.5517529,32.558155 16.417535,16.692372 32.283316,0.8265904 111.82542,80.372138 191.36751,159.91769 111.81791,239.46384 32.268312,319.01 16.624346,303.34887 z"
     id="path3907"
     inkscape:connector-curvature="0" /><path
     style="opacity:0;fill:#ff0000;fill-opacity:1"
     d="M 16.624346,303.34887 0.9803803,287.68773 64.370493,223.80099 127.76061,159.91424 64.156179,96.236198 0.5517529,32.558155 16.417535,16.692372 32.283316,0.8265904 111.82542,80.372138 191.36751,159.91769 111.81791,239.46384 32.268312,319.01 16.624346,303.34887 z"
     id="path3909"
     inkscape:connector-curvature="0" /></svg>